<svg width="20" height="20" viewBox="0 0 20 20" fill="none" xmlns="http://www.w3.org/2000/svg">
<path d="M5.5 11H0V19.9867H4.34408C7.0534 19.8947 9.35731 18.3426 9.94726 15.8503C9.95557 15.8182 9.9742 15.7904 10.0002 15.7711C10.0261 15.7508 10.058 15.7401 10.0907 15.7401C10.1234 15.7401 10.1551 15.7508 10.1811 15.7711C10.207 15.7904 10.2256 15.8182 10.2341 15.8503C10.5131 17.0301 11.1833 18.0827 12.1362 18.8357C12.6002 19.2026 13.1179 19.4882 13.6674 19.685C14.2464 19.8915 14.8608 19.9995 15.4845 19.9995H19.9995C19.9994 20.0002 19.9997 20.0002 19.9995 19.9995C19.9915 19.9661 19.9904 18.1562 19.9917 16.0846C19.9928 14.2428 19.996 12.194 19.9981 11H15.5C14.6716 11 14 10.3284 14 9.5C14 8.67157 14.6716 8 15.5 8H20V0H15.3526C14.1619 0.03209 13.0152 0.456747 12.0912 1.20658C11.1671 1.95642 10.5176 2.98971 10.2438 4.14709C10.2386 4.18132 10.2213 4.21234 10.1951 4.2348C10.1688 4.25727 10.1352 4.2701 10.1004 4.2701C10.0659 4.2701 10.0322 4.25727 10.006 4.2348L9.98707 4.21448C9.97139 4.19523 9.96107 4.17276 9.95718 4.14709C9.67802 2.96725 9.00766 1.9147 8.05465 1.16273C7.10178 0.409682 5.92202 0 4.7066 0H0V8H5.5C6.32843 8 7 8.67157 7 9.5C7 10.3284 6.32843 11 5.5 11Z" fill="#1F1F1F"/>
</svg>
