<svg width="19" height="21" viewBox="0 0 19 21" fill="none" xmlns="http://www.w3.org/2000/svg">
<path fill-rule="evenodd" clip-rule="evenodd" d="M0 0.5H14.3488C16.9176 0.5 19 2.5824 19 5.15116V20.5H0V0.5ZM3.23645 16.5365C3.23645 16.5365 1.74279 10.0863 5.53869 6.29044C9.47421 2.35491 15.7847 3.98823 15.7847 3.98823C15.7847 3.98823 17.4792 10.2377 13.4826 14.2343C9.8088 17.908 3.23645 16.5365 3.23645 16.5365ZM12.5465 13.2982C14.2232 11.6216 14.2232 8.90315 12.5465 7.22651C10.8698 5.54982 8.1514 5.54982 6.47479 7.22651C4.79811 8.90315 4.79811 11.6216 6.47479 13.2982C8.1514 14.9749 10.8698 14.9749 12.5465 13.2982Z" fill="#1F1F1F"/>
</svg>
