<svg width="26" height="31" viewBox="0 0 26 31" fill="none" xmlns="http://www.w3.org/2000/svg">
<path d="M19.7065 3.91479L19.8149 3.99689C21.7438 5.45799 23.3036 7.35408 24.3751 9.52868C25.4464 11.703 26.0017 14.0986 26 16.5246V30.4984H6.90561V18.5016H0V0.898502H10.5819C13.1892 0.890891 15.752 1.55658 18.0307 2.82836L18.1552 2.89782L19.7065 3.91479Z" fill="url(#paint0_linear_868_4542)"/>
<path d="M16.0813 6.32119C14.3975 5.38142 12.5077 4.89197 10.5882 4.8985H4V14.5016H8.5584C9.18064 14.5026 9.77711 14.7551 10.2171 15.2038C10.6571 15.6525 10.9047 16.2607 10.9056 16.8953V26.4984H22V16.5218C22.0012 14.7074 21.5858 12.9179 20.787 11.2966C19.9881 9.67534 18.828 8.26736 17.3997 7.18547L16.0813 6.32119Z" fill="white"/>
<defs>
<linearGradient id="paint0_linear_868_4542" x1="0" y1="0.898437" x2="24.4011" y2="31.7625" gradientUnits="userSpaceOnUse">
<stop stop-color="#FFD600"/>
<stop offset="0.291667" stop-color="white"/>
<stop offset="0.65625" stop-color="#FFD600"/>
<stop offset="1" stop-color="#917900"/>
</linearGradient>
</defs>
</svg>
