<svg width="19" height="21" viewBox="0 0 19 21" fill="none" xmlns="http://www.w3.org/2000/svg">
<path fill-rule="evenodd" clip-rule="evenodd" d="M14.3488 0.5H0V20.5H19V5.15116C19 2.5824 16.9176 0.5 14.3488 0.5ZM12.4568 2.97852C10.2116 2.97852 8.39156 4.80928 8.39156 7.06765C8.39156 8.0662 8.74739 8.98116 9.33847 9.69123L7.64688 11.5346C6.24195 10.3695 4.44147 9.66982 2.47852 9.66982V17.8481H10.609C10.609 15.8416 9.89058 14.0038 8.69844 12.5809L10.4787 10.6409C11.0642 10.9695 11.7387 11.1568 12.4568 11.1568C14.7019 11.1568 16.522 9.32601 16.522 7.06765C16.522 4.80928 14.7019 2.97852 12.4568 2.97852Z" fill="#1F1F1F"/>
</svg>
