<svg width="20" height="20" viewBox="0 0 20 20" fill="none" xmlns="http://www.w3.org/2000/svg">
<path d="M20 10C20 15.5228 15.5228 20 10 20C7.82802 20 5.8177 19.3075 4.17786 18.1313L6.26081 15.8763C7.34105 16.5651 8.62392 16.9643 10 16.9643C13.8463 16.9643 16.9643 13.8463 16.9643 10C16.9643 6.15374 13.8463 3.03571 10 3.03571C6.15374 3.03571 3.03571 6.15374 3.03571 10C3.03571 11.6323 3.59724 13.1334 4.53762 14.3206L2.46033 16.5693C0.928083 14.8122 0 12.5145 0 10C0 4.47719 4.47719 0 10 0C15.5228 0 20 4.47719 20 10Z" fill="#1F1F1F"/>
<path d="M10 5.35714C7.43583 5.35714 5.35714 7.43583 5.35714 10C5.35714 12.5642 7.43583 14.6429 10 14.6429C12.5642 14.6429 14.6429 12.5642 14.6429 10C14.6429 7.43583 12.5642 5.35714 10 5.35714Z" fill="#1F1F1F"/>
</svg>
