<svg width="90" height="91" viewBox="0 0 90 91" fill="none" xmlns="http://www.w3.org/2000/svg">
<path d="M90 45.5C90 70.3526 69.8526 90.5 45 90.5C35.2261 90.5 26.1796 87.3838 18.8004 82.0908L28.1737 71.9433C33.0347 75.043 38.8076 76.8393 45 76.8393C62.3082 76.8393 76.3393 62.8082 76.3393 45.5C76.3393 28.1918 62.3082 14.1607 45 14.1607C27.6918 14.1607 13.6607 28.1918 13.6607 45.5C13.6607 52.8451 16.1876 59.6002 20.4193 64.9427L11.0715 75.0619C4.17637 67.1548 0 56.8151 0 45.5C0 20.6474 20.1474 0.5 45 0.5C69.8526 0.5 90 20.6474 90 45.5Z" fill="#F9F9F9"/>
<path d="M45 24.6071C33.4612 24.6071 24.1071 33.9612 24.1071 45.5C24.1071 57.0388 33.4612 66.3929 45 66.3929C56.5388 66.3929 65.8929 57.0388 65.8929 45.5C65.8929 33.9612 56.5388 24.6071 45 24.6071Z" fill="#F9F9F9"/>
</svg>
