<svg width="1108" height="436" viewBox="0 0 1108 436" fill="none" xmlns="http://www.w3.org/2000/svg">
<path d="M1107.27 82.5897H860.161C857.182 82.5897 854.25 82.5901 851.365 82.9681C849.981 61.1021 840.542 40.5227 824.868 25.2013C809.194 9.87992 788.397 0.902307 766.489 0H763.132C739.928 0.0218038 717.661 9.15166 701.13 25.4222C684.6 41.6928 675.129 63.8014 674.757 86.9841C660.798 83.7904 646.52 82.2051 632.2 82.2592H554.794C525.831 82.1899 498 93.4905 477.294 113.727C457.376 94.2152 430.799 82.9709 402.915 82.2592H302.292V132.248C278.171 108.849 247.876 92.8027 214.956 85.9891C182.036 79.1755 147.855 81.8766 116.417 93.776C84.978 105.675 57.5837 126.281 37.443 153.177C17.3022 180.074 5.2488 212.148 2.69499 245.644L0 281.175H11.4426C10.8279 282.592 10.2132 284.01 9.69307 285.427C4.33747 298.947 1.79561 313.416 2.22225 327.951C2.85885 356.272 14.3922 383.259 34.4259 403.304C54.4596 423.348 81.4529 434.909 109.796 435.582H112.822C126.363 435.608 139.788 433.091 152.399 428.164C166.542 422.814 179.422 414.593 190.227 404.02C210.857 424.296 238.649 435.635 267.585 435.582H400.267C429.532 435.66 457.631 424.12 478.382 403.501C500.454 423.465 529.001 434.791 558.766 435.393H603.545H855.999C883.092 435.455 909.176 425.121 928.866 406.525C943.548 420.36 961.876 429.722 981.698 433.512C1001.52 437.302 1022.01 435.363 1040.77 427.921C1059.53 420.48 1075.77 407.845 1087.59 391.502C1099.41 375.158 1106.32 355.783 1107.51 335.652V323.084C1106.53 306.274 1101.54 289.942 1092.94 275.458H1107.55L1107.27 82.5897ZM1074.17 242.478H958.512C956.631 242.478 954.828 243.225 953.498 244.554C952.168 245.883 951.42 247.686 951.42 249.566C951.42 251.445 952.168 253.248 953.498 254.577C954.828 255.906 956.631 256.653 958.512 256.653H1001.45C1020.02 256.656 1037.89 263.743 1051.4 276.468C1064.92 289.192 1073.06 306.593 1074.17 325.116V333.809C1073.11 351.644 1065.53 368.468 1052.86 381.078C1040.2 393.689 1023.33 401.206 1005.48 402.198C987.627 403.19 970.032 397.588 956.044 386.458C942.057 375.329 932.653 359.45 929.622 341.842C929.622 341.566 929.512 341.301 929.317 341.106C929.122 340.912 928.858 340.802 928.582 340.802C928.306 340.802 928.042 340.912 927.846 341.106C927.651 341.301 927.542 341.566 927.542 341.842C924.621 358.759 915.811 374.101 902.669 385.158C889.526 396.216 872.896 402.277 855.715 402.272H636.361V274.702C636.361 266.268 633.008 258.18 627.04 252.217C621.072 246.254 612.978 242.904 604.538 242.904H542.642C540.964 242.866 539.316 243.35 537.927 244.29C536.537 245.23 535.476 246.578 534.887 248.148C534.489 249.32 534.377 250.57 534.558 251.794C534.74 253.019 535.21 254.183 535.931 255.189C536.652 256.196 537.603 257.017 538.704 257.583C539.805 258.15 541.025 258.447 542.264 258.448H604.585C609.247 258.461 613.713 260.316 617.009 263.61C620.305 266.903 622.163 271.367 622.175 276.025V402.225H559.617C520.749 400.902 487.697 378.601 479.233 342.787C479.113 342.333 478.845 341.932 478.473 341.646C478.101 341.36 477.645 341.205 477.176 341.205C476.706 341.205 476.25 341.36 475.878 341.646C475.506 341.932 475.239 342.333 475.119 342.787C471.116 359.748 461.5 374.863 447.83 385.684C434.159 396.506 417.234 402.401 399.794 402.414H267.113C249.666 402.403 232.734 396.51 219.056 385.689C205.378 374.868 195.753 359.752 191.74 342.787C191.639 342.323 191.383 341.907 191.013 341.609C190.643 341.311 190.182 341.149 189.707 341.149C189.232 341.149 188.771 341.311 188.401 341.609C188.031 341.907 187.774 342.323 187.674 342.787C184.821 355.025 179.023 366.383 170.783 375.877C162.544 385.37 152.11 392.711 140.389 397.264C130.888 400.956 120.742 402.707 110.552 402.414C90.7466 401.832 71.9118 393.71 57.901 379.71C43.8902 365.71 35.7621 346.89 35.1797 327.1C34.8352 316.914 36.5893 306.766 40.3336 297.286C40.3603 297.114 40.3603 296.939 40.3336 296.767C45.1593 284.968 53.4174 274.886 64.039 267.828C74.6606 260.769 87.1574 257.058 99.9131 257.173H178.264C180.145 257.173 181.949 256.426 183.279 255.097C184.61 253.768 185.357 251.965 185.357 250.085C185.357 248.206 184.61 246.403 183.279 245.074C181.949 243.745 180.145 242.998 178.264 242.998H35.8418C39.5443 209.567 54.8747 178.496 79.159 155.203C103.443 131.911 135.14 117.877 168.721 115.549C202.302 113.22 235.635 122.745 262.906 142.462C290.177 162.179 309.656 190.837 317.944 223.437C319.96 234.606 321.286 245.888 321.916 257.22V258.496H409.251C411.138 258.532 412.978 257.902 414.448 256.719C415.917 255.535 416.924 253.873 417.29 252.023C417.483 250.908 417.429 249.765 417.133 248.673C416.837 247.581 416.305 246.567 415.575 245.703C414.845 244.838 413.935 244.144 412.908 243.668C411.88 243.193 410.762 242.948 409.63 242.951H335.061V115.38H401.733C418.816 115.841 435.267 121.934 448.524 132.71C461.78 143.487 471.097 158.341 475.024 174.96C475.099 175.452 475.348 175.901 475.725 176.225C476.103 176.549 476.583 176.727 477.081 176.727C477.579 176.727 478.06 176.549 478.437 176.225C478.815 175.901 479.063 175.452 479.138 174.96C483.143 158.004 492.76 142.895 506.431 132.081C520.102 121.267 537.027 115.383 554.463 115.38H631.869C657.892 115.294 683.514 121.796 706.343 134.28L718.495 121.097C711.433 111.642 707.633 100.152 707.667 88.3544C707.677 76.149 711.739 64.2914 719.218 54.641C726.696 44.9905 737.168 38.0924 748.991 35.0276C760.815 31.9628 773.323 32.9047 784.553 37.7055C795.784 42.5064 805.102 50.8949 811.048 61.5564C816.995 72.2178 819.233 84.5492 817.413 96.6183C815.592 108.687 809.815 119.812 800.988 128.248C792.16 136.684 780.78 141.955 768.633 143.234C756.485 144.514 744.257 141.73 733.863 135.319L724.406 145.761C743.771 160.133 759.498 178.837 770.329 200.374C781.159 221.912 786.791 245.685 786.774 269.788V275.647H903C903.486 275.719 903.98 275.719 904.466 275.647C906.347 275.446 908.072 274.507 909.26 273.036C910.449 271.566 911.003 269.683 910.803 267.804C910.602 265.924 909.662 264.201 908.19 263.014C906.718 261.826 904.834 261.272 902.953 261.472H860.113C850.545 261.479 841.069 259.599 832.228 255.942C823.388 252.284 815.355 246.92 808.592 240.158C801.828 233.395 796.465 225.366 792.811 216.529C789.156 207.693 787.281 198.224 787.294 188.663C787.306 169.369 794.983 150.869 808.637 137.226C822.29 123.583 840.804 115.913 860.113 115.9H1074.13L1074.17 242.478Z" fill="#F9F9F9"/>
<path d="M801.478 95.9637C800.019 103.216 796.529 109.906 791.415 115.255C786.3 120.604 779.771 124.392 772.586 126.179C765.402 127.966 757.857 127.679 750.83 125.35C743.803 123.021 737.582 118.747 732.891 113.024C728.199 107.301 725.229 100.365 724.327 93.0222C723.425 85.6794 724.629 78.2314 727.796 71.5447C730.964 64.8581 735.965 59.2072 742.221 55.2495C748.476 51.2917 755.727 49.1897 763.131 49.1877C768.926 49.169 774.652 50.4409 779.894 52.9107C785.136 55.3805 789.761 58.9858 793.434 63.4654C797.107 67.9451 799.733 73.1865 801.125 78.8079C802.516 84.4293 802.637 90.2898 801.478 95.9637V95.9637Z" fill="#F9F9F9"/>
</svg>
