<svg width="20" height="21" viewBox="0 0 20 21" fill="none" xmlns="http://www.w3.org/2000/svg">
<path d="M4.58333 8C6.65446 8 8.33333 6.32031 8.33333 4.25C8.33333 2.17969 6.65446 0.5 4.58333 0.5C3.69425 0.5 2.8776 0.809245 2.2347 1.32682C1.38021 2.01367 0.833333 3.06836 0.833333 4.25C0.833333 6.32031 2.51221 8 4.58333 8Z" fill="#1F1F1F"/>
<path d="M3.33333 8.83333H0V20.5H19.1667V14.6667C19.1667 11.444 16.5552 8.83333 13.3333 8.83333H10V15.0833C10 15.3135 9.81345 15.5 9.58333 15.5C9.35321 15.5 9.16667 15.3135 9.16667 15.0833V14.6667C9.16667 11.444 6.55518 8.83333 3.33333 8.83333Z" fill="#1F1F1F"/>
<path d="M16.7721 6.47005C16.0893 7.39779 14.9902 8 13.75 8C11.6789 8 10 6.32031 10 4.25C10 3.53385 10.2002 2.86654 10.5477 2.29688C10.824 1.8444 11.1934 1.45378 11.6296 1.1543C12.2327 0.740885 12.9631 0.5 13.75 0.5C15.8211 0.5 17.5 2.17969 17.5 4.25C17.5 4.66341 17.4333 5.06055 17.31 5.43164C17.1851 5.80599 17.0024 6.15755 16.7721 6.47005Z" fill="#1F1F1F"/>
</svg>
