<svg width="20" height="20" viewBox="0 0 20 20" fill="none" xmlns="http://www.w3.org/2000/svg">
<path d="M4.58333 7.5C6.65446 7.5 8.33333 5.82031 8.33333 3.75C8.33333 1.67969 6.65446 0 4.58333 0C3.69425 0 2.8776 0.309245 2.2347 0.826823C1.38021 1.51367 0.833333 2.56836 0.833333 3.75C0.833333 5.82031 2.51221 7.5 4.58333 7.5Z" fill="#1F1F1F"/>
<path d="M3.33333 8.33333H0V20H19.1667V14.1667C19.1667 10.944 16.5552 8.33333 13.3333 8.33333H10V14.5833C10 14.8135 9.81345 15 9.58333 15C9.35321 15 9.16667 14.8135 9.16667 14.5833V14.1667C9.16667 10.944 6.55518 8.33333 3.33333 8.33333Z" fill="#1F1F1F"/>
<path d="M16.7721 5.97005C16.0893 6.89779 14.9902 7.5 13.75 7.5C11.6789 7.5 10 5.82031 10 3.75C10 3.03385 10.2002 2.36654 10.5477 1.79688C10.824 1.3444 11.1934 0.953776 11.6296 0.654297C12.2327 0.240885 12.9631 0 13.75 0C15.8211 0 17.5 1.67969 17.5 3.75C17.5 4.16341 17.4333 4.56055 17.31 4.93164C17.1851 5.30599 17.0024 5.65755 16.7721 5.97005Z" fill="#1F1F1F"/>
</svg>
